<?xml version="1.0" encoding="UTF-8"?>
<svg id="Layer_1" xmlns="http://www.w3.org/2000/svg" version="1.1" viewBox="0 0 1080 1080">
  <!-- Generator: Adobe Illustrator 29.5.0, SVG Export Plug-In . SVG Version: 2.1.0 Build 137)  -->
  <defs>
    <style>
      .st0 {
        fill: #fffbee;
      }
    </style>
  </defs>
  <path d="M900.66,499.51c.14,15.63-1.83,31.15-4.86,46.42,10.45,5.92,31.19,6.68,36.35,19.57,4.64,11.61-1.5,24.17-14.99,23-5.93-.51-26.16-12.97-29.54-10.59-.76.53-5.55,14.57-6.78,17.26-28.47,61.81-87.6,107.88-149.54,133.24l-.61,2.05c15.06,7.34,24.04,23.1,42.48,22,3.85-.23,15.54-2.2,17.29-5.69,1.84-3.67,2.43-10.03,5.03-14.97,5.39-10.27,15.66-20.24,26.5-24.49,3.01-1.18,12.04-2.78,13.19-3.81,1.39-1.24,7.11-15.6,8.97-19.03,13.82-25.46,41.15-64.72,74.81-44.77,27,16,19.09,57.28,5.98,80.3,26.55,19.32,45.32,50.84,32.91,84.17-6.57,17.65-40.44,50.26-57.51,58.48-9.28,4.47-18.63,5.28-27.39,8.6-7.11,2.7-16.6,9.85-24.6,13.39-32.55,14.42-60.19,17.04-95.12,16.78-5.84-.04-11.71.11-17.54.05,2.12,7.09,5.93,25.15,2.09,31.33-2.04,3.29-66.21,16.75-74.89,18.34-43.63,7.96-92.34,12.95-136.63,14.35-21.23.67-42.59-.57-63.83-.06-33.22,52.93-108.9,49.25-155,15.83-17.53-12.71-37.44-29.7-54.15-43.84-19.23-16.27-35.3-28.34-43.56-53.43-19.64-59.65,20.49-119.08,70.01-149.01-53.16-25.03-99.92-61.08-129.14-112.82-1.3-2.31-6.27-14.12-6.95-14.55-3.59-2.28-24.82,10.9-29.87,12.37-8.75,2.55-16.22.92-20.17-7.82-9.78-21.61,21.7-29.38,36.49-33.85l1.54-2.11-9.86-49.7c-14.72,1.29-42.7,8.51-45.59-12.97-3.21-23.88,30.91-16.96,44.45-20.16,1.12-58.31,20.39-113.66,53.09-161.38.46-70.5.08-297.21,127.05-229.95,34.22,18.13,66.31,51.1,92.99,78.99,8.35,8.72,16.47,19.82,24.94,28.05.97.95,1.74,2.32,3.31,2.23,48.75-10.91,99.55-13.56,149.12-6.93,48.31-62.53,154.07-207.05,217.42-75.18,26.3,54.76,36.36,118.68,43.35,178.63,37.18,45.01,60.6,100.21,65.79,158.68,10.65.75,28.62-4.59,37.48,2.02,8.76,6.54,7,20.51-1.56,26.42-4.3,2.97-11.29,4.13-16.43,4.56s-11.12-.32-16.5,0ZM169.25,495.51c2.41,0,9.82.85,12.74,1.26,11.94,1.68,18.54,12.94,12.18,23.66-7.15,12.04-28.92,6.38-40.41,5.08.69,14.97,4.36,29.54,8,44,11.2-2.06,38.65-13.38,43.53,2.95,5.59,18.71-18.33,21.32-30.54,25.06,22.22,49.78,69.43,87.53,119.02,108.44,90.07,37.99,193.32,41,289.29,28.39,108-14.19,231.99-55.46,274.6-165.83-11.2-2.93-31.4-3.75-28.93-20.44,2.49-16.83,25.99-10.53,36.93-8.57,1.33-11.99,2.65-23.88,2-36-11.66.74-31.83,8.99-38.38-5.11-10.73-23.07,23.11-24.67,37.39-26.89-4.48-47.06-21.43-90.56-48.61-128.87-4.45-6.27-14.35-15.97-16.68-22.31-2.96-8.07-2.58-21.14-3.85-30.15-6.85-48.6-18.67-114.07-43.33-156.64-19.39-33.46-34.61-30.41-63.83-9.79-39.62,27.96-69.56,73.11-98.84,111.13-8.01,8.16-22.83,1.86-33.45.79-34.61-3.47-69.27-3.02-103.7,2.04-11.44,1.68-29.22,7.54-39.15,7.89-3.75.13-7.12-.51-10.03-3.04-7.23-6.31-15.81-18.57-22.97-26.02-25.04-26.08-88.04-94.76-125.01-94.04-20.82.4-30.51,34.39-35.2,50.85-15.05,52.83-17.43,110.76-15.51,165.47-7.04,14.19-16.93,26.62-24.29,40.7-18.38,35.16-29.25,76.23-29.47,116.01h16.5ZM871.49,695.81c-2.9,5.22-5.4,10.76-7.84,16.22.06,2.12,2.66,2.62,4.03,3.93,17.59,16.84,27.72,32.24,15.36,56.39-1.16,2.26-7.04,10.13-7.16,10.76-.51,2.55,4.97,10.58,6.81,12.84,24.56,30.24,67.62,6.03,47.98-32.98-3.59-7.12-18.87-24.46-26.77-25.31-4.94-.53-16.49,4.08-18.07-4.92-.75-4.29,12.14-24.84,14.7-30.9,2.74-6.48,11.79-33.33,2.44-36.17-11.33-3.45-26.8,21.74-31.47,30.15ZM814.92,758.23c-8.15,38.64,36.69,111.34,79.72,73.74-12.32-5.72-21.82-12.16-29.39-23.58-1.83-2.76-8.72-16.91-9.57-17.43-2.98-1.8-9.19,1.23-14.03-3.96-3.66-3.93-4.17-11.34.06-14.98,6.68-5.76,16.84,2.32,22.36-9.64,6.6-14.31-9.02-28.27-22.17-29.66-14.72-1.55-24.27,12.73-26.96,25.52ZM313.47,936.69c-.94,3.24-3.37,9.61-1.81,12.29,1.44,2.48,13.3,11.62,16.35,13.7,29.5,20.01,75.72,27.06,104.24,1.8,38.24-33.86-.04-85.36-42.31-89.72-39.62-4.08-66.27,26.82-76.46,61.93Z"/>
  <path class="st0" d="M182.23,379.5c7.36-14.08,17.25-26.51,24.29-40.7-1.92-54.71.46-112.64,15.51-165.47,4.69-16.46,14.38-50.45,35.2-50.85,36.97-.71,99.97,67.97,125.01,94.04,7.16,7.45,15.74,19.71,22.97,26.02,2.9,2.53,6.27,3.18,10.03,3.04,9.92-.35,27.71-6.21,39.15-7.89,34.43-5.06,69.09-5.52,103.7-2.04,10.62,1.07,25.44,7.36,33.45-.79,29.28-38.02,59.22-83.17,98.84-111.13,29.21-20.62,44.44-23.67,63.83,9.79,24.66,42.57,36.48,108.04,43.33,156.64,1.27,9,.88,22.07,3.85,30.15,2.33,6.34,12.23,16.04,16.68,22.31,27.18,38.31,44.13,81.81,48.61,128.87-14.28,2.22-48.12,3.83-37.39,26.89,6.56,14.1,26.72,5.84,38.38,5.11.65,12.12-.67,24-2,36-10.94-1.96-34.44-8.26-36.93,8.57-2.47,16.69,17.73,17.51,28.93,20.44-42.61,110.36-166.61,151.63-274.6,165.83-95.97,12.61-199.22,9.6-289.29-28.39-49.59-20.91-96.8-58.66-119.02-108.44,12.21-3.74,36.13-6.35,30.54-25.06-4.88-16.33-32.33-5.01-43.53-2.95-3.63-14.46-7.31-29.02-8-44,11.48,1.3,33.26,6.96,40.41-5.08,6.36-10.72-.24-21.98-12.18-23.66-2.91-.41-10.32-1.26-12.74-1.26h-16.5c.23-39.78,11.1-80.84,29.47-116.01ZM716.27,162.64c-18.36,2.48-55.8,47.8-66.39,63.59-1.4,2.09-5.73,7.5-5.1,9.66.7,2.41,25.99,9.08,30.43,10.63,19.78,6.93,37.91,14.48,56.15,24.84,6.45,3.66,16.69,12.08,22.6,14.39,9.04,3.53,9.15-5.2,8.7-11.7-1.46-21.19-19.46-88.74-31.54-105.44-1.45-2-4.76-5.3-7.14-5.85-2.19-.5-5.46-.43-7.71-.12ZM259.89,181.2c-13.91,16.36-19.64,81.54-20.19,103.79-.78,31.11,12.58,13.73,26.32,4.32,16.4-11.23,33.01-20.56,51.04-28.95,4.51-2.1,34.16-13.55,34.6-15.42-2.92-5.67-8.06-11.56-12.41-16.41-12.03-13.39-50.01-51.78-67.25-52.74-4.4-.24-9.29,2.12-12.1,5.41ZM676.18,352.53c-42.14,3.39-89.76,20.81-104.98,63.96-14.77-8.96-35.16-9.15-52.04-8.02-12.59.84-26.61,4.81-36.96,12.01-27.32-55.5-104.84-60.15-158.65-50.65-26.39,4.66-66.28,18.71-90.48,30.51-12.35,6.03-19.21,18.09-13.2,31.54,4.44,9.95,12.06,8.66,17.47,16.61-5.46,60.88,21.97,123.71,83.62,142.27,60.46,18.2,127.08-5.3,156.27-62.24,12.86-25.09,16.61-51.94,13.96-79.97,6.61-14.6,63.54-16.54,75.06-3.02-4.76,67.24,44.28,128.87,112.89,133.01,86.48,5.23,143.66-49.55,138.57-136.57-.31-5.36-3.4-17.35-2.65-21.48.9-4.95,6.1-5.94,9.1-8.98,9-9.14,8.07-23.82-.84-32.63-5.59-5.52-31.94-12.99-40.87-15.62-31.15-9.17-62.17-15.12-94.75-12.74,10.61-14.8-12.71-29.65-24.99-33.49-13.72-4.29-41.23-4.24-52.91,5.09-5.94,4.75-8.02,14.4-1.05,18.87s14.74-.9,21.72-2.2c18.52-3.47,31.33,1.35,46.23,11.76l-.49,1.99ZM343.17,347.47c-4.26,9.37,1.06,20.11,11.86,16.85,1.52-.46,10.59-8.97,14.03-10.96,8.38-4.86,17.39-7.46,27.15-6.81,8.07.53,24.31,8.21,27.3-4.72,3.17-13.73-13.44-17.34-23.58-17.99-17.06-1.09-48.99,6.53-56.76,23.64ZM521.79,546c.14,15.95-17.08,29.68-32.09,23.01-10.12-4.5-6.91-21.47-21.05-17.06-15.67,4.9-1.85,28.64,7.12,34.98,1.93,1.36,7.68,3.29,8.45,4.55,1.19,1.96.19,6.66.61,9.39,2.86,18.76,11.02,36.14,29.89,43.1,36.33,13.41,58.74-22.19,58.08-54.39,16.11.51,39.51-30.38,23.94-41.62s-13.01,16.48-25.98,19.09c-16.87,3.4-29.25-19.1-25.89-33.9,6.62-4.61,16.36-9.65,19.07-17.92,8.58-26.17-40.51-23.39-54.92-17.92-16.53,6.27-14.53,19.87-2.22,29.6,3.14,2.48,11.28,5.4,12.66,6.84.92.96,2.32,10.36,2.34,12.25Z"/>
  <path class="st0" d="M389.93,874.75c-39.62-4.08-66.27,26.82-76.46,61.93-.94,3.24-3.37,9.61-1.81,12.29,1.44,2.48,13.3,11.62,16.35,13.7,29.5,20.01,75.72,27.06,104.24,1.8,38.24-33.86-.04-85.36-42.31-89.72Z"/>
  <path class="st0" d="M902.96,665.66c-11.33-3.45-26.8,21.74-31.47,30.15-2.9,5.22-5.4,10.76-7.84,16.22.06,2.12,2.66,2.62,4.03,3.93,17.59,16.84,27.72,32.24,15.36,56.39-1.16,2.26-7.04,10.13-7.16,10.76-.51,2.55,4.97,10.58,6.81,12.84,24.56,30.24,67.62,6.03,47.98-32.98-3.59-7.12-18.87-24.46-26.77-25.31-4.94-.53-16.49,4.08-18.07-4.92-.75-4.29,12.14-24.84,14.7-30.9,2.74-6.48,11.79-33.33,2.44-36.17Z"/>
  <path class="st0" d="M841.89,732.71c-14.72-1.55-24.27,12.73-26.96,25.52-8.15,38.64,36.69,111.34,79.72,73.74-12.32-5.72-21.82-12.16-29.39-23.58-1.83-2.76-8.72-16.91-9.57-17.43-2.98-1.8-9.19,1.23-14.03-3.96-3.66-3.93-4.17-11.34.06-14.98,6.68-5.76,16.84,2.32,22.36-9.64,6.6-14.31-9.02-28.27-22.17-29.66Z"/>
  <path d="M630.45,338.78c-6.97,1.31-14.89,6.58-21.72,2.2s-4.89-14.12,1.05-18.87c11.67-9.33,39.19-9.39,52.91-5.09,12.28,3.84,35.6,18.69,24.99,33.49,32.58-2.38,63.61,3.58,94.75,12.74,8.94,2.63,35.28,10.1,40.87,15.62,8.91,8.81,9.85,23.49.84,32.63-3,3.04-8.2,4.03-9.1,8.98-.75,4.14,2.34,16.12,2.65,21.48,5.09,87.02-52.09,141.8-138.57,136.57-68.61-4.15-117.65-65.77-112.89-133.01-11.52-13.52-68.45-11.58-75.06,3.02,2.65,28.04-1.09,54.88-13.96,79.97-29.19,56.94-95.8,80.44-156.27,62.24-61.64-18.56-89.08-81.39-83.62-142.27-5.41-7.95-13.03-6.66-17.47-16.61-6.01-13.45.85-25.51,13.2-31.54,24.19-11.8,64.08-25.85,90.48-30.51,53.82-9.5,131.33-4.86,158.65,50.65,10.36-7.2,24.37-11.17,36.96-12.01,16.88-1.13,37.27-.94,52.04,8.02,15.21-43.15,62.84-60.57,104.98-63.96l.49-1.99c-14.9-10.41-27.71-15.23-46.23-11.76ZM592.83,447.14c-5.87,67.02,40.66,113.52,107.4,109.4,49.03-3.03,82.93-30.89,91.15-79.82,8.97-53.4-11.4-94.07-68.5-98.9-49.5-4.18-124.71,8.22-130.05,69.32ZM262.75,456.03c-5.87,68.33,35.82,123.2,107.46,118.46,111-7.35,139.98-170.8,13.71-180.67-46.05-3.6-116.19,4.25-121.17,62.21Z"/>
  <path d="M506.8,526.91c-12.3-9.73-14.3-23.33,2.22-29.6,14.41-5.47,63.49-8.25,54.92,17.92-2.71,8.27-12.45,13.32-19.07,17.92-3.36,14.79,9.02,37.3,25.89,33.9,12.97-2.62,9.72-30.84,25.98-19.09s-7.83,42.14-23.94,41.62c.67,32.2-21.75,67.8-58.08,54.39-18.86-6.96-27.02-24.34-29.89-43.1-.42-2.73.59-7.43-.61-9.39-.77-1.26-6.52-3.19-8.45-4.55-8.97-6.34-22.79-30.09-7.12-34.98,14.13-4.42,10.92,12.55,21.05,17.06,15,6.67,32.23-7.06,32.09-23.01-.02-1.89-1.42-11.29-2.34-12.25-1.38-1.44-9.52-4.35-12.66-6.84ZM510.3,618.4c7.73,10.46,20.09,14.53,31.34,6.52,17.38-12.37-3.12-19.03-14.73-20.14-10.82-1.04-27.24-.76-16.62,13.62Z"/>
  <path d="M271.99,175.79c-4.4-.24-9.29,2.12-12.1,5.41-13.91,16.36-19.64,81.54-20.19,103.79-.78,31.11,12.58,13.73,26.32,4.32,16.4-11.23,33.01-20.56,51.04-28.95,4.51-2.1,34.16-13.55,34.6-15.42-2.92-5.67-8.06-11.56-12.41-16.41-12.03-13.39-50.01-51.78-67.25-52.74Z"/>
  <path d="M723.97,162.76c-2.19-.5-5.46-.43-7.71-.12-18.36,2.48-55.8,47.8-66.39,63.59-1.4,2.09-5.73,7.5-5.1,9.66.7,2.41,25.99,9.08,30.43,10.63,19.78,6.93,37.91,14.48,56.15,24.84,6.45,3.66,16.69,12.08,22.6,14.39,9.04,3.53,9.15-5.2,8.7-11.7-1.46-21.19-19.46-88.74-31.54-105.44-1.45-2-4.76-5.3-7.14-5.85Z"/>
  <path d="M399.92,323.83c-17.06-1.09-48.99,6.53-56.76,23.64-4.26,9.37,1.06,20.11,11.86,16.85,1.52-.46,10.59-8.97,14.03-10.96,8.38-4.86,17.39-7.46,27.15-6.81,8.07.53,24.31,8.21,27.3-4.72,3.17-13.73-13.44-17.34-23.58-17.99Z"/>
  <path class="st0" d="M370.21,574.49c-71.64,4.74-113.33-50.13-107.46-118.46,4.97-57.96,75.12-65.81,121.17-62.21,126.27,9.87,97.29,173.32-13.71,180.67ZM384.99,551.26c61.14-12.61,54.93-127.45-6.04-134.47-87.77-10.1-76.01,151.39,6.04,134.47Z"/>
  <path class="st0" d="M791.38,476.72c-8.22,48.93-42.12,76.79-91.15,79.82-66.74,4.12-113.27-42.38-107.4-109.4,5.35-61.1,80.55-73.5,130.05-69.32,57.1,4.82,77.47,45.5,68.5,98.9ZM677.14,537.54c73.14-.86,68.14-136.17-4.23-136.75s-68.87,137.61,4.23,136.75Z"/>
  <path class="st0" d="M526.91,604.79c-10.82-1.04-27.24-.76-16.62,13.62,7.73,10.46,20.09,14.53,31.34,6.52,17.38-12.37-3.12-19.03-14.73-20.14Z"/>
  <path d="M378.95,416.79c-87.77-10.1-76.01,151.39,6.04,134.47,61.14-12.61,54.93-127.45-6.04-134.47Z"/>
  <path d="M672.91,400.79c-74.59-.6-68.87,137.61,4.23,136.75,73.14-.86,68.14-136.17-4.23-136.75Z"/>
</svg>