<?xml version="1.0" encoding="UTF-8"?>
<svg id="Layer_1" xmlns="http://www.w3.org/2000/svg" version="1.1" viewBox="0 0 1080 286.05">
  <!-- Generator: Adobe Illustrator 29.5.0, SVG Export Plug-In . SVG Version: 2.1.0 Build 137)  -->
  <defs>
    <style>
      .st0 {
        fill: #141414;
      }
    </style>
  </defs>
  <path class="st0" d="M146.65,219.16c-5.22-3.65-12.52-10.44-16.96-15.66-1.83-2.09-2.87-4.7-3.39-7.04-1.57-4.96-4.44-6.26-13.05,1.3,0,0-14.61,13.83-26.35,20.88-8.87,5.22-16.44,4.96-25.31-2.09-10.7-8.35-38.36-34.44-32.36-52.71,3.13-9.39,16.96-22.18,33.14-34.71,12.26-9.65,16.7-8.35,16.7-45.66,0-11.48.26-20.09-4.18-31.83-2.35-6-8.35-17.22-15.13-19.83-5.48-2.09-12-.26-13.57,4.7-2.87,9.39,4.17,21.66,7.83,29.23,4.44,9.13,11.22,15.66,11.22,31.83,0,17.22-24.27,34.18-29.75,35.75-8.35,2.61-11.74-4.18-6.52-11.48,12.79-18.27-5.74-27.14-11.48-49.58-4.18-15.66-1.04-27.92,6.52-38.88,8.61-13.05,23.75-23.48,43.58-23.22,15.66.26,31.57,7.31,39.14,20.88,6.52,12,8.35,18,8.35,48.8-.26,16.96-3.13,28.7-17.22,42.79-12,12-23.48,18.01-30.53,26.09-10.18,12,14.87,32.36,25.05,39.66,3.65,2.61,9.92,1.04,13.31-1.83l14.35-12c3.91-3.39,5.22-7.57,5.22-11.48V42.51c0-15.92-8.09-12-7.31-21.14.26-2.09,2.61-5.74,5.74-5.48,5.48.26,9.92,4.17,16.7-1.3l6.26-5.48c7.31-6.52,13.57-6,22.44-1.04,5.48,3.13,9.65,7.57,12.52,10.96,3.39,3.91,2.35,8.87-1.83,12l-8.87,6.78c-5.22,3.91-4.44,6.26-4.44,18.27v115.6c0,12-.78,14.35,4.44,18.27,2.09,1.57,3.65,2.09,6,1.04,3.91-1.83,8.35.78,9.92,2.87,1.83,2.35,1.3,6.26-4.96,14.87-2.87,3.65-6,6.26-12,10.18-8.35,5.48-15.13,5.74-23.22.26Z"/>
  <path class="st0" d="M206.14,282.83c-1.57-2.09-2.87-7.04,1.31-10.18,1.57-1.3,4.96-4.17,4.96-7.57v-78.8c0-1.57-.52-2.09-1.57-2.87l-3.91-2.87c-5.22-3.65,5.48-13.57,5.48-18.79v-53.49c0-12,.52-14.61-4.44-18.27l-1.83-1.3c-1.57-1.3-4.7-2.61-6.78-1.3-2.35,1.3-6,.52-7.83-1.83-1.83-2.61-1.3-6.26,1.57-9.65,3.91-4.96,9.92-10.7,15.66-14.87,8.09-6,15.66-5.22,23.48,0,2.87,2.09,7.31,6,10.96,9.65,6,4.96,7.83,3.65,14.61-1.83,4.96-4.44,8.61-7.31,12.52-9.92,8.35-5.48,16.44-4.96,25.05,0,32.36,18.79,32.88,44.62,33.14,56.62,1.57,49.06-23.75,77.76-44.36,93.68l-6.26,4.7c-6.52,4.96-15.13,5.48-21.4,1.04-2.61-2.09-2.87,0-2.87,1.57v24.53c0,11.22-.52,14.35-4.44,18.27-9.13,9.65-19.05,17.48-34.44,26.09-2.09,1.3-6.52.52-8.61-2.61ZM266.94,184.46c5.48,3.65,10.44,3.91,13.31-4.7l.52-1.04c4.96-16.96,8.35-41.49,8.09-48.53-.52-22.18-10.18-38.1-16.96-41.49-2.35-1.04-5.74-2.35-7.31-1.04l-6.52,4.7c-3.39,2.61-4.17,4.44-4.44,8.87v69.15c.52,2.87,1.83,4.44,4.44,6.52l8.87,7.57Z"/>
  <path class="st0" d="M379.66,218.64l-2.09-1.83c-2.61-2.09-5.48-2.61-7.31-2.61-1.57,0-4.44.78-6.26,1.3-2.61.78-7.57.78-11.48-3.65-2.61-3.13-3.39-9.66.78-13.31,3.91-3.39,4.96-9.39,4.96-13.05v-77.24c0-12,.52-14.61-4.44-18.27l-1.83-1.3c-1.57-1.3-4.7-2.61-6.78-1.3l-2.35,1.3c-2.35,1.3-6,.52-7.83-1.83-1.83-2.61-1.3-6.52,1.57-9.65,6-7.05,12.53-12.26,18-15.92,8.35-5.74,15.4-5.74,23.48,0,4.7,3.39,12.79,11.22,16.7,14.87,2.61,1.83,5.22,1.83,7.83-.78,9.13-8.61,11.74-10.7,16.44-14.35,7.57-6,15.66-6,23.48,0,6.52,4.96,16.7,13.31,22.96,20.35,4.17,4.7,8.35,12.26,2.87,18-5.74,6.52-12.79,13.57-23.22,20.09-5.74,3.65-9.65,4.7-12.79,2.09s-3.13-6.26-.26-10.18c3.13-4.18,1.3-6.78-2.35-11.48-3.39-4.18-8.61-8.35-13.31-11.48-1.83-1.04-4.96-2.87-6.78-1.3l-2.87,2.61c-5.22,4.44-6.78,7.57-7.31,11.22v70.72c0,12-.78,14.35,4.44,18.27l8.87,6.78c4.17,3.13,4.96,8.09,1.83,12-2.87,3.39-6.52,7.04-11.48,9.92-8.61,4.96-16.18,6.52-23.48,0Z"/>
  <path class="st0" d="M468.38,151.32c-.26-24.27,6.52-37.58,10.44-42.79,17.22-22.18,38.88-38.62,56.62-49.58,8.09-4.96,15.66-6,23.48,0,11.22,8.61,18.53,14.61,25.05,23.22,5.22,6.78,7.83,15.66,0,23.48-7.57,7.57-19.83,20.88-30.01,29.49-7.57,6.26-22.96,18.53-34.97,28.18-3.39,2.87-4.18,4.44-3.91,7.31,3.65,14.61,11.22,26.09,24.27,26.88,9.13.52,13.31-1.04,21.4-5.22,7.31-3.65,9.66-3.39,11.74,0,1.83,2.87,1.04,6.78-2.61,9.92-10.96,9.66-23.49,15.92-45.4,15.92s-55.84-27.66-56.1-66.8ZM518.74,139.84l24.01-20.61c7.57-6.52,7.57-16.18,0-23.48-1.83-1.83-5.74-5.74-7.31-7.05-1.57-1.3-5.22-1.57-7.57,0-1.83,1.3-3.39,2.61-4.7,3.65-9.13,7.31-8.87,8.87-9.92,38.36-.26,8.61,0,13.31,5.48,9.13Z"/>
  <path class="st0" d="M637.46,218.64l-2.09-1.83c-2.61-2.09-5.48-2.61-7.31-2.61-1.57,0-4.44.78-6.26,1.3-2.61.78-7.57.78-11.48-3.65-2.61-3.13-3.39-9.66.78-13.31,3.91-3.39,4.96-9.39,4.96-13.05v-77.24c0-12,.52-14.61-4.44-18.27l-1.83-1.3c-1.57-1.3-4.7-2.61-6.78-1.3-2.35,1.3-6,.52-7.83-1.83-1.83-2.61-1.3-6.52,1.57-9.65,6.26-7.05,10.44-10.96,15.66-14.61,8.35-5.74,15.66-6,23.49,0,5.48,4.17,12.52,10.44,16.96,15.13,3.65,3.65,7.31,4.44,10.18,1.57,6.26-6.26,13.83-12.79,19.05-16.96,7.83-6.26,15.92-5.74,23.49,0,4.44,3.39,12.79,10.44,16.96,15.13l8.87,9.13c2.35,2.09,3.13,3.39,3.13,6,0,2.09-1.3,3.65-2.87,4.7-2.35,1.57-4.7,1.3-4.7,7.05v68.37c0,12-.78,14.35,4.44,18.27l8.87,6.78c4.17,3.13,5.22,8.09,1.83,12-2.87,3.13-6,7.05-11.48,10.18-8.87,5.22-15.13,5.48-23.48.26-4.96-3.13-12.53-10.44-16.96-15.66-4.44-5.48-4.44-13.05-4.44-18.27v-76.98c0-12,.78-14.09-4.44-18.27l-1.83-1.3c-1.57-1.3-4.96-2.87-6.78-1.3l-8.09,6.78c-6.26,5.22-7.31,8.87-7.31,13.31v64.45c0,12-.78,14.35,4.44,18.27l8.87,6.78c4.17,3.13,5.22,8.09,1.83,12-2.87,3.13-6.78,7.04-11.48,9.92-8.61,5.22-16.18,6.52-23.48,0Z"/>
  <path class="st0" d="M788.28,219.16c-9.39-7.05-25.83-21.14-31.31-27.66-3.91-4.7-4.96-14.09-5.48-19.31-1.04-13.31-.78-32.36,0-47.75.52-12,1.3-15.4,5.74-19.83,9.66-9.39,21.4-20.35,32.36-29.49,3.13-3.13,2.61-4.96-2.09-8.87-2.61-2.09-4.7-3.65-6-4.7-7.57-5.48-16.7-18.53-16.96-29.23-.26-9.92,3.91-20.61,8.61-24.27,4.96-3.65,8.09-1.3,8.61,2.09,1.57,10.18,2.09,11.74,15.4,23.75,8.09,7.31,27.4,19.31,37.31,25.05,32.1,18.53,32.88,44.62,33.14,56.62,1.57,49.06-24.79,76.46-44.36,93.68l-11.48,9.92c-7.83,6.26-15.66,5.74-23.49,0ZM806.03,184.46c5.48,3.65,10.44,3.91,13.31-4.44,5.22-18.79,8.87-49.32,8.61-57.67-.26-18-8.61-30.27-14.87-34.97-4.18-3.13-7.57-1.3-9.13,0l-.26.26-6.52,4.7c-2.61,1.83-3.39,6.26-4.44,18.27-1.04,12.26-.78,37.84-.26,48.01.52,12,1.04,15.13,4.7,18.27l8.87,7.57Z"/>
  <path class="st0" d="M921.36,218.64l-2.61-2.35c-2.61-1.83-5.22-2.35-7.05-2.35-1.57,0-4.44.78-6.26,1.3-2.61.78-7.57.78-11.48-3.65-2.61-3.13-3.39-9.66.78-13.31,3.91-3.39,4.96-9.39,4.96-13.05v-74.37c0-12,.78-14.61-4.17-18.27l-1.83-1.3c-1.57-1.3-4.7-2.61-6.78-1.3l-2.35,1.3c-2.35,1.3-6,.52-7.83-1.83-1.83-2.61-1.83-6.52,1.3-9.65,4.96-5.22,11.48-11.48,18-15.92,8.09-5.48,15.66-5.48,23.48,0,8.87,6,13.05,10.18,17.22,15.13l8.61,9.13c2.35,2.09,3.13,3.39,3.13,6,0,2.09-1.3,3.65-2.87,4.7-2.35,1.57-4.44,1.83-4.44,7.57v65.24c0,12-.78,14.35,4.44,18.27l8.87,6.78c4.17,3.13,4.96,8.09,1.57,12-3.13,3.39-6.26,7.04-11.48,10.44-8.09,5.22-15.92,6-23.22-.52ZM920.58,16.93l13.83,8.87c4.44,2.87,5.74,8.87,1.83,12l-11.48,9.92c-7.83,6.26-15.13,5.22-23.48,0l-13.83-8.87c-4.44-2.87-5.74-8.87-1.83-12l11.48-9.92c7.83-6.26,15.13-5.22,23.48,0Z"/>
  <path class="st0" d="M1044.78,89.74c3.65,5.22,7.83,11.74,2.87,18-4.7,5.74-12,11.74-19.31,18-3.91,3.39-3.13,6.78-1.3,8.35,5.22,4.44,16.7,14.35,20.35,19.57,11.48,16.18,18.53,21.66,18.53,53.49,0,29.49-15.92,65.24-58.45,65.24-31.31,0-43.84-22.96-44.1-50.88-.26-16.44,8.87-49.58,34.97-49.58,6.52,0,7.57,8.61,2.09,11.74-4.17,2.35-12.79,6.26-12.79,35.23,0,24.53,9.39,32.1,19.83,32.1,13.83,0,21.66-9.65,21.66-36.53,0-19.31-.78-23.22-13.05-38.1-7.57-9.13-13.31-12.52-22.18-19.83-3.91-3.39-4.96-9.66-1.83-13.57,4.44-5.22,14.35-14.09,20.09-18.27,5.74-4.17,3.39-9.13.78-12.79-3.39-4.96-22.7-25.05-26.62-27.4-1.57-1.04-5.48-2.09-7.57-1.04-.52.26-2.09,1.57-2.61,1.83-2.35,1.04-5.74.52-7.57-1.83-1.83-2.61-1.3-6.26,1.57-9.65,3.91-4.96,11.74-12.26,17.48-16.44,8.09-6,15.66-4.96,23.48,0,7.83,4.96,28.7,25.05,33.66,32.36Z"/>
</svg>