<?xml version="1.0" encoding="UTF-8"?>
<svg id="Layer_1" xmlns="http://www.w3.org/2000/svg" version="1.1" viewBox="0 0 700 484.62">
  <!-- Generator: Adobe Illustrator 29.5.0, SVG Export Plug-In . SVG Version: 2.1.0 Build 137)  -->
  <defs>
    <style>
      .st0, .st1 {
        fill: #141414;
      }

      .st1 {
        stroke: #141414;
        stroke-miterlimit: 10;
        stroke-width: 11px;
      }

      .st2 {
        fill: #fffbee;
      }
    </style>
  </defs>
  <g>
    <g>
      <g>
        <path class="st0" d="M271.67,230.97c-7.23,0-13.74-3.15-18.23-8.15,5.33,3.21,11.57,5.05,18.23,5.05h156.67c6.66,0,12.9-1.84,18.23-5.05-4.49,5-11,8.15-18.23,8.15h-156.67Z"/>
        <path class="st0" d="M458.33,192.37c0,16.57-13.43,30-30,30h-156.67c-16.57,0-30-13.43-30-30v14.1c0,16.57,13.43,30,30,30h156.67c16.57,0,30-13.43,30-30v-14.1h0Z"/>
      </g>
      <g>
        <rect class="st2" x="247.17" y="11.2" width="205.67" height="205.67" rx="24.5" ry="24.5"/>
        <path class="st0" d="M428.33,16.7c10.48,0,19,8.52,19,19v156.67c0,10.48-8.52,19-19,19h-156.67c-10.48,0-19-8.52-19-19V35.7c0-10.48,8.52-19,19-19h156.67M428.33,5.7h-156.67c-16.57,0-30,13.43-30,30v156.67c0,16.57,13.43,30,30,30h156.67c16.57,0,30-13.43,30-30V35.7c0-16.57-13.43-30-30-30h0Z"/>
      </g>
    </g>
    <path class="st1" d="M386.46,98.08l-34.14-59.13c-1.03-1.79-3.62-1.79-4.65,0l-34.14,59.13c-1.03,1.79.26,4.03,2.33,4.03h23.8v78.49c0,5.44,4.41,9.85,9.85,9.85h.96c5.44,0,9.85-4.41,9.85-9.85v-78.49h23.8c2.07,0,3.36-2.24,2.33-4.03Z"/>
  </g>
  <g>
    <g>
      <g>
        <path class="st0" d="M271.67,473.41c-7.23,0-13.74-3.15-18.23-8.15,5.33,3.21,11.57,5.05,18.23,5.05h156.67c6.66,0,12.9-1.84,18.23-5.05-4.49,5-11,8.15-18.23,8.15h-156.67Z"/>
        <path class="st0" d="M458.33,434.81c0,16.57-13.43,30-30,30h-156.67c-16.57,0-30-13.43-30-30v14.1c0,16.57,13.43,30,30,30h156.67c16.57,0,30-13.43,30-30v-14.1h0Z"/>
      </g>
      <g>
        <rect class="st2" x="247.17" y="253.64" width="205.67" height="205.67" rx="24.5" ry="24.5"/>
        <path class="st0" d="M428.33,259.14c10.48,0,19,8.52,19,19v156.67c0,10.48-8.52,19-19,19h-156.67c-10.48,0-19-8.52-19-19v-156.67c0-10.48,8.52-19,19-19h156.67M428.33,248.14h-156.67c-16.57,0-30,13.43-30,30v156.67c0,16.57,13.43,30,30,30h156.67c16.57,0,30-13.43,30-30v-156.67c0-16.57-13.43-30-30-30h0Z"/>
      </g>
    </g>
    <path class="st1" d="M313.54,368.9l34.14,59.13c1.03,1.79,3.62,1.79,4.65,0l34.14-59.13c1.03-1.79-.26-4.03-2.33-4.03h-23.8v-78.49c0-5.44-4.41-9.85-9.85-9.85h-.96c-5.44,0-9.85,4.41-9.85,9.85v78.49h-23.8c-2.07,0-3.36,2.24-2.33,4.03Z"/>
  </g>
  <g>
    <g>
      <g>
        <path class="st0" d="M41.54,473.41c-7.23,0-13.74-3.15-18.23-8.15,5.33,3.21,11.57,5.05,18.23,5.05h156.67c6.66,0,12.9-1.84,18.23-5.05-4.49,5-11,8.15-18.23,8.15H41.54Z"/>
        <path class="st0" d="M228.21,434.81c0,16.57-13.43,30-30,30H41.54c-16.57,0-30-13.43-30-30v14.1c0,16.57,13.43,30,30,30h156.67c16.57,0,30-13.43,30-30v-14.1h0Z"/>
      </g>
      <g>
        <rect class="st2" x="17.04" y="253.64" width="205.67" height="205.67" rx="24.5" ry="24.5"/>
        <path class="st0" d="M198.21,259.14c10.48,0,19,8.52,19,19v156.67c0,10.48-8.52,19-19,19H41.54c-10.48,0-19-8.52-19-19v-156.67c0-10.48,8.52-19,19-19h156.67M198.21,248.14H41.54c-16.57,0-30,13.43-30,30v156.67c0,16.57,13.43,30,30,30h156.67c16.57,0,30-13.43,30-30v-156.67c0-16.57-13.43-30-30-30h0Z"/>
      </g>
    </g>
    <path class="st1" d="M103.92,316.49l-59.13,34.14c-1.79,1.03-1.79,3.62,0,4.65l59.13,34.14c1.79,1.03,4.03-.26,4.03-2.33v-23.8h78.49c5.44,0,9.85-4.41,9.85-9.85v-.96c0-5.44-4.41-9.85-9.85-9.85h-78.49v-23.8c0-2.07-2.24-3.36-4.03-2.33Z"/>
  </g>
  <g>
    <g>
      <g>
        <path class="st0" d="M501.8,473.41c-7.23,0-13.74-3.15-18.23-8.15,5.33,3.21,11.57,5.05,18.23,5.05h156.67c6.66,0,12.9-1.84,18.23-5.05-4.49,5-11,8.15-18.23,8.15h-156.67Z"/>
        <path class="st0" d="M688.46,434.81c0,16.57-13.43,30-30,30h-156.67c-16.57,0-30-13.43-30-30v14.1c0,16.57,13.43,30,30,30h156.67c16.57,0,30-13.43,30-30v-14.1h0Z"/>
      </g>
      <g>
        <rect class="st2" x="477.3" y="253.64" width="205.67" height="205.67" rx="24.5" ry="24.5"/>
        <path class="st0" d="M658.46,259.14c10.48,0,19,8.52,19,19v156.67c0,10.48-8.52,19-19,19h-156.67c-10.48,0-19-8.52-19-19v-156.67c0-10.48,8.52-19,19-19h156.67M658.46,248.14h-156.67c-16.57,0-30,13.43-30,30v156.67c0,16.57,13.43,30,30,30h156.67c16.57,0,30-13.43,30-30v-156.67c0-16.57-13.43-30-30-30h0Z"/>
      </g>
    </g>
    <path class="st1" d="M596.08,389.41l59.13-34.14c1.79-1.03,1.79-3.62,0-4.65l-59.13-34.14c-1.79-1.03-4.03.26-4.03,2.33v23.8h-78.49c-5.44,0-9.85,4.41-9.85,9.85v.96c0,5.44,4.41,9.85,9.85,9.85h78.49v23.8c0,2.07,2.24,3.36,4.03,2.33Z"/>
  </g>
</svg>