<?xml version="1.0" encoding="UTF-8"?>
<svg id="Layer_1" xmlns="http://www.w3.org/2000/svg" version="1.1" viewBox="0 0 1080 1080">
  <!-- Generator: Adobe Illustrator 29.5.0, SVG Export Plug-In . SVG Version: 2.1.0 Build 137)  -->
  <defs>
    <style>
      .st0 {
        fill: #fffbee;
      }

      .st1 {
        fill: #c96cff;
      }
    </style>
  </defs>
  <rect class="st1" x="28.57" y="28.57" width="1022.86" height="1022.86" rx="183.75" ry="183.75"/>
  <path d="M987.95,614.45c17.14.45,45.96.84,43.74,25.13-2.19,23.97-30.37,17.25-46.93,17.17l-9.96,52.27c.44,1.45,19.92,8.7,23.33,10.65,11.6,6.63,19.09,16.89,12.6,30.47-5.53,11.59-18.1,11.5-29.01,8.27-3.74-1.11-22.29-10.42-23.57-9.61-10.74,20.38-23.75,39.71-39.27,56.74-40.4,44.34-96.36,82.95-155.27,97.04-114.08,27.28-255.97,29.45-370.64,5.26-73.08-15.41-152.6-43.36-208.33-94.44-29.13-26.7-53.7-60.08-67.93-97.1-16.07,1.79-37.72,17.53-52.41,4.84-5.73-4.95-7.04-11.23-6.23-18.6,1.45-13.13,19.45-19.77,30.17-23.6,2.59-.93,15.67-3.85,16.05-5.4-4.09-18.25-5.71-36.22-4.84-54.95-17.65-1.43-47.21,4.06-50.92-19.8-4.36-28.06,36.5-22.95,53.4-21.55,6.63-65.75,33.15-124.96,74.28-175.96-.04-48.64,9.11-97.63,21.92-144.35,10.68-38.95,33.04-107.9,68.5-130.04,57.14-35.66,131.89,39.29,166.2,79.36,16.19,18.91,30.51,39.54,46.94,58.13,10.44-.25,20.81-3.1,31.27-3.96,25.78-2.13,61.11-1.83,86.76,1.75,7.11.99,20.3,5.45,26.58,4.94.93-.08,1.82-.16,2.54-.85,14.52-19.49,29.92-38.29,46.66-55.91,44.43-46.79,136.61-131.9,192.14-52.27,32.63,46.8,50.48,146.9,51.97,203.64.36,13.66-2.09,25.83-2.5,38.92-.38,11.77,6.29,14.67,12.24,23.31,37.98,55.16,58.6,123.55,60.54,190.52ZM944.93,613.62c.32-49.28-12.78-101.66-37.09-144.49-10.17-17.92-23.94-33.59-33.08-52.16,3.11-61.03-2.15-123.44-19.79-182.01-8.35-27.72-20.9-74.24-58.3-66.12-40.53,8.8-98.94,77.87-126.83,108.94-7.8,8.69-18.71,31.18-30.34,34.19-11.03,2.85-27.96-4.61-39.39-6.64-44.02-7.83-85.5,2.26-128.78,3.1-3.98.08-8.67-.15-12.37-1.77-8.54-3.73-20.58-25.65-26.63-33.76-24.46-32.79-81.17-99.63-120.12-111.51-18.95-5.78-29.72,4.62-39.74,19.36-28.53,42.02-51.26,143.39-53.92,194.25-.64,12.32,2.45,32.73-3.15,43.18-2.76,5.16-8.18,8.71-11.73,13.09-33.97,42.02-54.61,97.47-61.23,150.91,13.82,4.54,41.76,2.87,49.46,17.15,7.32,13.57-.3,29.79-16.06,30.78l-35.07-4.88c-.82,13.4,1.28,26.51,3.34,39.67,15.46-1.44,49.08-9.76,51.25,13.69,2.13,23.02-21.07,24.57-38.05,26.88,36.74,88.01,131.34,135.82,219.06,159.41,157.66,42.39,425.79,40.6,529.01-109.18,4.86-7.05,8.78-14.79,13.87-21.7-15.53-5.53-44.88-7.86-41.16-31.23,4.36-27.41,40.27-13.16,56.88-8.05,3.58-13.31,7.1-26.73,8.28-40.53-17.18.89-59.07,11.59-57.09-17.77,1.84-27.28,40.03-22.27,58.74-22.76Z"/>
  <path class="st0" d="M944.93,613.62c-18.71.49-56.9-4.52-58.74,22.76-1.98,29.36,39.91,18.66,57.09,17.77-1.18,13.81-4.7,27.22-8.28,40.53-16.61-5.1-52.52-19.35-56.88,8.05-3.72,23.37,25.63,25.7,41.16,31.23-5.09,6.91-9.01,14.65-13.87,21.7-103.22,149.78-371.35,151.57-529.01,109.18-87.72-23.59-182.31-71.4-219.06-159.41,16.97-2.31,40.17-3.87,38.05-26.88-2.17-23.45-35.78-15.14-51.25-13.69-2.06-13.16-4.17-26.27-3.34-39.67l35.07,4.88c15.76-.99,23.38-17.2,16.06-30.78-7.7-14.28-35.65-12.61-49.46-17.15,6.62-53.44,27.26-108.89,61.23-150.91,3.54-4.38,8.96-7.93,11.73-13.09,5.6-10.45,2.5-30.86,3.15-43.18,2.66-50.85,25.39-152.22,53.92-194.25,10.01-14.74,20.79-25.14,39.74-19.36,38.95,11.88,95.66,78.72,120.12,111.51,6.05,8.11,18.08,30.04,26.63,33.76,3.69,1.61,8.38,1.84,12.37,1.77,43.28-.84,84.76-10.93,128.78-3.1,11.42,2.03,28.36,9.49,39.39,6.64,11.63-3.01,22.53-25.49,30.34-34.19,27.89-31.07,86.31-100.14,126.83-108.94,37.4-8.12,49.95,38.4,58.3,66.12,17.64,58.57,22.9,120.98,19.79,182.01,9.14,18.57,22.91,34.24,33.08,52.16,24.31,42.83,37.41,95.21,37.09,144.49ZM398.09,305.07c1.4-1.44-3.64-9.04-4.62-10.68-11.02-18.43-51.53-66.76-71.51-72.43-25.63-7.27-35.03,26.62-40.74,45.25-6.69,21.86-13.76,51.91-14.7,74.63-.24,5.67-1.96,20,6.86,17.62,38.97-23.15,79.65-45.66,124.72-54.4ZM834.08,373.73c-3.39-36.79-1.31-74.91-12.19-110.65-5.19-17.05-11.81-36.23-33.48-30.56-18.11,4.74-57.13,48.36-68.82,64.37-5.91,8.09-11.9,13.4.03,19.65,7.07,3.7,16.33,5.68,24.02,9.07,28.77,12.69,55.99,32.58,83.06,48.53l7.39-.41ZM365.62,486.44c-62.97,8.53-73.76,175.08,15.49,166.87,68.98-6.34,74.23-179.01-15.49-166.87ZM692.43,494.75c-75.8,6.53-77.75,175.43,4.62,167.57,63.8-6.09,72.03-131.11,20.1-161.34-7.74-4.51-15.68-7.01-24.72-6.23ZM518.71,608.07c-6.75.56-16.36,2.1-21.76,6.37-11.06,8.77,3.33,25.07,10.73,31.45,4.49,3.87,8.81,3.52,9.53,10.32,1.84,17.48-18.92,54.93-38.89,38.06-11.93-10.08-2.91-32.11-18.72-33.44-16.15-1.36-15.53,16.87-13.32,28.25,6.17,31.9,47.91,46.16,72.19,24.63,2.43-2.15,9.25-12.07,11.48-11.53,18.64,31.97,65.78,27.84,82.77-3.42,4.8-8.83,10.82-31.61-3.45-34.5-15.92-3.23-16.61,22.35-28.07,30.28-23.32,16.14-40.68-18.46-38.35-38.35.69-5.86,6.04-6.65,9.96-9.9,8.17-6.76,20.79-24.4,9.04-33.04-7.44-5.47-33.64-5.97-43.13-5.18Z"/>
  <path d="M365.62,486.44c89.72-12.15,84.47,160.52,15.49,166.87-89.25,8.21-78.47-158.34-15.49-166.87Z"/>
  <path d="M692.43,494.75c9.03-.78,16.97,1.72,24.72,6.23,51.93,30.22,43.7,155.24-20.1,161.34-82.37,7.87-80.41-161.04-4.62-167.57Z"/>
  <path d="M398.09,305.07c-45.07,8.74-85.75,31.25-124.72,54.4-8.82,2.38-7.1-11.95-6.86-17.62.95-22.73,8.01-52.77,14.7-74.63,5.7-18.63,15.1-52.53,40.74-45.25,19.98,5.67,60.49,54,71.51,72.43.98,1.64,6.02,9.24,4.62,10.68Z"/>
  <path d="M834.08,373.73l-7.39.41c-27.07-15.95-54.29-35.84-83.06-48.53-7.69-3.39-16.95-5.37-24.02-9.07-11.93-6.24-5.94-11.56-.03-19.65,11.69-16.01,50.71-59.63,68.82-64.37,21.67-5.67,28.29,13.51,33.48,30.56,10.88,35.74,8.8,73.86,12.19,110.65Z"/>
  <path d="M518.71,608.07c9.49-.78,35.69-.28,43.13,5.18,11.76,8.64-.87,26.28-9.04,33.04-3.92,3.25-9.27,4.04-9.96,9.9-2.33,19.89,15.04,54.49,38.35,38.35,11.46-7.93,12.15-33.51,28.07-30.28,14.26,2.9,8.25,25.67,3.45,34.5-16.99,31.26-64.13,35.39-82.77,3.42-2.22-.53-9.05,9.38-11.48,11.53-24.28,21.52-66.02,7.26-72.19-24.63-2.2-11.39-2.83-29.61,13.32-28.25,15.81,1.33,6.79,23.35,18.72,33.44,19.96,16.87,40.73-20.58,38.89-38.06-.72-6.8-5.04-6.44-9.53-10.32-7.41-6.39-21.8-22.69-10.73-31.45,5.4-4.28,15-5.81,21.76-6.37Z"/>
</svg>